<mxfile host="app.diagrams.net" modified="2023-11-24T20:04:52.138Z" agent="Mozilla/5.0 (X11; Linux x86_64; rv:106.0) Gecko/20100101 Firefox/106.0" etag="pruS4p8AuprehtO80a1B" version="22.1.4" type="device">
  <diagram name="Page-1" id="LBSeitZsQf2y9JBgT9EE">
    <mxGraphModel dx="1434" dy="710" grid="1" gridSize="10" guides="1" tooltips="1" connect="1" arrows="1" fold="1" page="1" pageScale="1" pageWidth="850" pageHeight="1100" math="0" shadow="0">
      <root>
        <mxCell id="0" />
        <mxCell id="1" parent="0" />
        <mxCell id="HHfeSGEIW-QrhZdsmd-v-1" value="home" style="rounded=1;whiteSpace=wrap;html=1;rotation=-90;" vertex="1" parent="1">
          <mxGeometry x="-20" y="370" width="160" height="60" as="geometry" />
        </mxCell>
        <mxCell id="HHfeSGEIW-QrhZdsmd-v-16" style="edgeStyle=orthogonalEdgeStyle;rounded=0;orthogonalLoop=1;jettySize=auto;html=1;" edge="1" parent="1" source="HHfeSGEIW-QrhZdsmd-v-2" target="HHfeSGEIW-QrhZdsmd-v-15">
          <mxGeometry relative="1" as="geometry" />
        </mxCell>
        <mxCell id="HHfeSGEIW-QrhZdsmd-v-17" style="edgeStyle=orthogonalEdgeStyle;rounded=0;orthogonalLoop=1;jettySize=auto;html=1;" edge="1" parent="1" source="HHfeSGEIW-QrhZdsmd-v-2">
          <mxGeometry relative="1" as="geometry">
            <mxPoint x="370" y="480" as="targetPoint" />
          </mxGeometry>
        </mxCell>
        <mxCell id="HHfeSGEIW-QrhZdsmd-v-2" value="&lt;div&gt;pagina inicia&lt;/div&gt;&lt;div&gt;&lt;br&gt;&lt;/div&gt;" style="rounded=1;whiteSpace=wrap;html=1;rotation=-90;" vertex="1" parent="1">
          <mxGeometry x="110" y="370" width="240" height="60" as="geometry" />
        </mxCell>
        <mxCell id="HHfeSGEIW-QrhZdsmd-v-3" value="" style="endArrow=none;html=1;rounded=0;" edge="1" parent="1" source="HHfeSGEIW-QrhZdsmd-v-5">
          <mxGeometry width="50" height="50" relative="1" as="geometry">
            <mxPoint x="140" y="340" as="sourcePoint" />
            <mxPoint x="200" y="340" as="targetPoint" />
            <Array as="points">
              <mxPoint x="90" y="340" />
            </Array>
          </mxGeometry>
        </mxCell>
        <mxCell id="HHfeSGEIW-QrhZdsmd-v-4" value="" style="endArrow=none;html=1;rounded=0;exitX=0.25;exitY=1;exitDx=0;exitDy=0;entryX=0.329;entryY=-0.033;entryDx=0;entryDy=0;entryPerimeter=0;" edge="1" parent="1" source="HHfeSGEIW-QrhZdsmd-v-1" target="HHfeSGEIW-QrhZdsmd-v-2">
          <mxGeometry width="50" height="50" relative="1" as="geometry">
            <mxPoint x="400" y="330" as="sourcePoint" />
            <mxPoint x="450" y="280" as="targetPoint" />
          </mxGeometry>
        </mxCell>
        <mxCell id="HHfeSGEIW-QrhZdsmd-v-6" value="" style="endArrow=none;html=1;rounded=0;" edge="1" parent="1" target="HHfeSGEIW-QrhZdsmd-v-5">
          <mxGeometry width="50" height="50" relative="1" as="geometry">
            <mxPoint x="140" y="340" as="sourcePoint" />
            <mxPoint x="200" y="340" as="targetPoint" />
            <Array as="points" />
          </mxGeometry>
        </mxCell>
        <mxCell id="HHfeSGEIW-QrhZdsmd-v-5" value="cadastro" style="text;html=1;strokeColor=none;fillColor=none;align=center;verticalAlign=middle;whiteSpace=wrap;rounded=0;" vertex="1" parent="1">
          <mxGeometry x="110" y="320" width="60" height="30" as="geometry" />
        </mxCell>
        <mxCell id="HHfeSGEIW-QrhZdsmd-v-7" value="login" style="text;html=1;strokeColor=none;fillColor=none;align=center;verticalAlign=middle;whiteSpace=wrap;rounded=0;" vertex="1" parent="1">
          <mxGeometry x="110" y="420" width="60" height="30" as="geometry" />
        </mxCell>
        <mxCell id="HHfeSGEIW-QrhZdsmd-v-9" style="edgeStyle=orthogonalEdgeStyle;rounded=0;orthogonalLoop=1;jettySize=auto;html=1;exitX=0;exitY=0.5;exitDx=0;exitDy=0;entryX=0;entryY=0.75;entryDx=0;entryDy=0;" edge="1" parent="1" source="HHfeSGEIW-QrhZdsmd-v-5" target="HHfeSGEIW-QrhZdsmd-v-5">
          <mxGeometry relative="1" as="geometry" />
        </mxCell>
        <mxCell id="HHfeSGEIW-QrhZdsmd-v-13" value="cliente" style="text;html=1;strokeColor=none;fillColor=none;align=center;verticalAlign=middle;whiteSpace=wrap;rounded=0;" vertex="1" parent="1">
          <mxGeometry x="280" y="280" width="60" height="30" as="geometry" />
        </mxCell>
        <mxCell id="HHfeSGEIW-QrhZdsmd-v-15" value="vizualizar,agendar,ajudar" style="rounded=0;whiteSpace=wrap;html=1;" vertex="1" parent="1">
          <mxGeometry x="370" y="280" width="180" height="70" as="geometry" />
        </mxCell>
        <mxCell id="HHfeSGEIW-QrhZdsmd-v-18" value="vizualizar agendamento" style="rounded=0;whiteSpace=wrap;html=1;" vertex="1" parent="1">
          <mxGeometry x="370" y="440" width="180" height="70" as="geometry" />
        </mxCell>
        <mxCell id="HHfeSGEIW-QrhZdsmd-v-19" value="ADM" style="text;html=1;strokeColor=none;fillColor=none;align=center;verticalAlign=middle;whiteSpace=wrap;rounded=0;" vertex="1" parent="1">
          <mxGeometry x="280" y="480" width="60" height="30" as="geometry" />
        </mxCell>
      </root>
    </mxGraphModel>
  </diagram>
</mxfile>
